<mxfile host="app.diagrams.net" agent="Mozilla/5.0 (Windows NT 10.0; Win64; x64; rv:138.0) Gecko/20100101 Firefox/138.0" version="27.0.6">
  <diagram name="Seite-1" id="kiRcYdykQpiXVtvCCH_o">
    <mxGraphModel dx="2524" dy="1371" grid="1" gridSize="10" guides="1" tooltips="1" connect="1" arrows="1" fold="1" page="1" pageScale="1" pageWidth="827" pageHeight="1169" math="0" shadow="0">
      <root>
        <mxCell id="0" />
        <mxCell id="1" parent="0" />
        <mxCell id="iKRK4WftCPjV4v0DSpR1-3" value="" style="edgeStyle=orthogonalEdgeStyle;rounded=0;orthogonalLoop=1;jettySize=auto;html=1;entryX=0;entryY=0.5;entryDx=0;entryDy=0;fontSize=13;" parent="1" target="RGeOCi0uQSU0HmTcbR4D-23" edge="1">
          <mxGeometry relative="1" as="geometry">
            <mxPoint x="214" y="65" as="targetPoint" />
            <mxPoint x="160" y="50" as="sourcePoint" />
          </mxGeometry>
        </mxCell>
        <mxCell id="iKRK4WftCPjV4v0DSpR1-5" value="" style="edgeStyle=orthogonalEdgeStyle;rounded=0;orthogonalLoop=1;jettySize=auto;html=1;entryX=0;entryY=0.5;entryDx=0;entryDy=0;fontSize=13;exitX=0.428;exitY=0.967;exitDx=0;exitDy=0;exitPerimeter=0;" parent="1" target="mGreL9vsvFHhippzRWms-1" edge="1">
          <mxGeometry relative="1" as="geometry">
            <Array as="points">
              <mxPoint x="80" y="425" />
            </Array>
            <mxPoint x="79.92000000000007" y="78.01999999999998" as="sourcePoint" />
            <mxPoint x="190.0000000000001" y="422.5" as="targetPoint" />
          </mxGeometry>
        </mxCell>
        <mxCell id="H4KakfRGWg1EVCRGtIzr-42" style="edgeStyle=orthogonalEdgeStyle;rounded=0;orthogonalLoop=1;jettySize=auto;html=1;entryX=0;entryY=0.5;entryDx=0;entryDy=0;fontSize=13;" parent="1" target="H4KakfRGWg1EVCRGtIzr-4" edge="1">
          <mxGeometry relative="1" as="geometry">
            <Array as="points">
              <mxPoint x="80" y="545" />
            </Array>
            <mxPoint x="80" y="80" as="sourcePoint" />
          </mxGeometry>
        </mxCell>
        <mxCell id="H4KakfRGWg1EVCRGtIzr-43" style="edgeStyle=orthogonalEdgeStyle;rounded=0;orthogonalLoop=1;jettySize=auto;html=1;entryX=0;entryY=0.5;entryDx=0;entryDy=0;fontSize=13;" parent="1" target="H4KakfRGWg1EVCRGtIzr-23" edge="1">
          <mxGeometry relative="1" as="geometry">
            <Array as="points">
              <mxPoint x="80" y="685" />
            </Array>
            <mxPoint x="80" y="80" as="sourcePoint" />
          </mxGeometry>
        </mxCell>
        <mxCell id="H4KakfRGWg1EVCRGtIzr-44" style="edgeStyle=orthogonalEdgeStyle;rounded=0;orthogonalLoop=1;jettySize=auto;html=1;entryX=0;entryY=0.5;entryDx=0;entryDy=0;fontSize=13;" parent="1" target="H4KakfRGWg1EVCRGtIzr-35" edge="1">
          <mxGeometry relative="1" as="geometry">
            <Array as="points">
              <mxPoint x="80" y="833" />
            </Array>
            <mxPoint x="80" y="80" as="sourcePoint" />
          </mxGeometry>
        </mxCell>
        <mxCell id="RGeOCi0uQSU0HmTcbR4D-11" value="" style="edgeStyle=orthogonalEdgeStyle;rounded=0;orthogonalLoop=1;jettySize=auto;html=1;fontSize=13;" parent="1" source="RGeOCi0uQSU0HmTcbR4D-2" target="RGeOCi0uQSU0HmTcbR4D-10" edge="1">
          <mxGeometry relative="1" as="geometry" />
        </mxCell>
        <UserObject label="&lt;div&gt;Verfahrens-vorgaben&lt;/div&gt;&lt;div&gt;0..∞&lt;/div&gt;" link="https://www.bfr-abwasser.de/html/ISYBAU_Austauschformate_Abwasser.14.17.html" linkTarget="_blank" id="RGeOCi0uQSU0HmTcbR4D-2">
          <mxCell style="rounded=0;whiteSpace=wrap;html=1;fontFamily=Latin Modern;fontSize=13;" parent="1" vertex="1">
            <mxGeometry x="190" y="145.94" width="90" height="48.12" as="geometry" />
          </mxCell>
        </UserObject>
        <mxCell id="RGeOCi0uQSU0HmTcbR4D-3" value="" style="endArrow=classic;html=1;rounded=0;entryX=0;entryY=0.5;entryDx=0;entryDy=0;fontSize=13;exitX=0.429;exitY=1.008;exitDx=0;exitDy=0;exitPerimeter=0;" parent="1" target="RGeOCi0uQSU0HmTcbR4D-2" edge="1">
          <mxGeometry width="50" height="50" relative="1" as="geometry">
            <mxPoint x="80.05999999999995" y="80.48000000000002" as="sourcePoint" />
            <mxPoint x="370" y="210" as="targetPoint" />
            <Array as="points">
              <mxPoint x="80" y="170" />
            </Array>
          </mxGeometry>
        </mxCell>
        <mxCell id="RGeOCi0uQSU0HmTcbR4D-8" value="" style="endArrow=classic;html=1;rounded=0;entryX=0;entryY=0.5;entryDx=0;entryDy=0;fontSize=13;" parent="1" target="RGeOCi0uQSU0HmTcbR4D-24" edge="1">
          <mxGeometry width="50" height="50" relative="1" as="geometry">
            <mxPoint x="80" y="80" as="sourcePoint" />
            <mxPoint x="130" y="284.71" as="targetPoint" />
            <Array as="points">
              <mxPoint x="80" y="285" />
            </Array>
          </mxGeometry>
        </mxCell>
        <mxCell id="RGeOCi0uQSU0HmTcbR4D-16" value="" style="edgeStyle=orthogonalEdgeStyle;rounded=0;orthogonalLoop=1;jettySize=auto;html=1;fontSize=13;" parent="1" source="RGeOCi0uQSU0HmTcbR4D-10" target="RGeOCi0uQSU0HmTcbR4D-15" edge="1">
          <mxGeometry relative="1" as="geometry" />
        </mxCell>
        <UserObject label="&lt;div&gt;Zielgrößen&lt;/div&gt;&lt;div&gt;0..∞&lt;/div&gt;" link="https://www.bfr-abwasser.de/html/ISYBAU_Austauschformate_Abwasser.14.17.html" linkTarget="_blank" id="RGeOCi0uQSU0HmTcbR4D-10">
          <mxCell style="rounded=0;whiteSpace=wrap;html=1;fontFamily=Latin Modern;fontSize=13;" parent="1" vertex="1">
            <mxGeometry x="320" y="148.75" width="100" height="42.5" as="geometry" />
          </mxCell>
        </UserObject>
        <UserObject label="&lt;div&gt;&lt;font&gt;Verfahrens-&lt;/font&gt;&lt;/div&gt;&lt;div&gt;&lt;font&gt;kennung&lt;/font&gt;&lt;/div&gt;" linkTarget="_blank" id="RGeOCi0uQSU0HmTcbR4D-15">
          <mxCell style="rounded=0;whiteSpace=wrap;html=1;fontFamily=Latin Modern;fontSize=13;fillColor=#f5f5f5;fontColor=#333333;strokeColor=#666666;" parent="1" vertex="1">
            <mxGeometry x="460" y="148.75" width="90" height="42.5" as="geometry" />
          </mxCell>
        </UserObject>
        <UserObject label="&lt;div&gt;Kennung&lt;/div&gt;" linkTarget="_blank" id="RGeOCi0uQSU0HmTcbR4D-23">
          <mxCell style="rounded=0;whiteSpace=wrap;html=1;fontFamily=Latin Modern;fillColor=#f5f5f5;fontColor=#333333;strokeColor=#666666;fontSize=13;" parent="1" vertex="1">
            <mxGeometry x="200" y="35" width="80" height="30" as="geometry" />
          </mxCell>
        </UserObject>
        <mxCell id="RGeOCi0uQSU0HmTcbR4D-26" value="" style="edgeStyle=orthogonalEdgeStyle;rounded=0;orthogonalLoop=1;jettySize=auto;html=1;fontSize=13;" parent="1" source="RGeOCi0uQSU0HmTcbR4D-24" target="RGeOCi0uQSU0HmTcbR4D-25" edge="1">
          <mxGeometry relative="1" as="geometry" />
        </mxCell>
        <UserObject label="&lt;div&gt;Rechennetz&lt;/div&gt;" link="https://www.bfr-abwasser.de/html/ISYBAU_Austauschformate_Abwasser.14.18.html" linkTarget="_blank" id="RGeOCi0uQSU0HmTcbR4D-24">
          <mxCell style="rounded=0;whiteSpace=wrap;html=1;fontFamily=Latin Modern;fontSize=13;" parent="1" vertex="1">
            <mxGeometry x="190" y="262.5" width="90" height="45" as="geometry" />
          </mxCell>
        </UserObject>
        <mxCell id="RGeOCi0uQSU0HmTcbR4D-34" value="" style="edgeStyle=orthogonalEdgeStyle;rounded=0;orthogonalLoop=1;jettySize=auto;html=1;exitX=1;exitY=0.75;exitDx=0;exitDy=0;fontSize=13;" parent="1" source="RGeOCi0uQSU0HmTcbR4D-27" target="RGeOCi0uQSU0HmTcbR4D-33" edge="1">
          <mxGeometry relative="1" as="geometry">
            <Array as="points">
              <mxPoint x="420" y="345" />
            </Array>
          </mxGeometry>
        </mxCell>
        <mxCell id="H4KakfRGWg1EVCRGtIzr-55" style="edgeStyle=orthogonalEdgeStyle;rounded=0;orthogonalLoop=1;jettySize=auto;html=1;entryX=0;entryY=0.5;entryDx=0;entryDy=0;fontSize=13;exitX=1;exitY=0.75;exitDx=0;exitDy=0;" parent="1" source="RGeOCi0uQSU0HmTcbR4D-27" target="RGeOCi0uQSU0HmTcbR4D-52" edge="1">
          <mxGeometry relative="1" as="geometry">
            <Array as="points">
              <mxPoint x="420" y="345" />
              <mxPoint x="440" y="345" />
              <mxPoint x="440" y="285" />
            </Array>
          </mxGeometry>
        </mxCell>
        <UserObject label="&lt;div&gt;Referenz &lt;br&gt;&lt;/div&gt;&lt;div&gt;Stammdaten-&lt;/div&gt;&lt;div&gt;kennung&lt;/div&gt;" linkTarget="_blank" id="RGeOCi0uQSU0HmTcbR4D-25">
          <mxCell style="rounded=0;whiteSpace=wrap;html=1;fontFamily=Latin Modern;fontSize=13;" parent="1" vertex="1">
            <mxGeometry x="320" y="260" width="100" height="50" as="geometry" />
          </mxCell>
        </UserObject>
        <UserObject label="&lt;div&gt;Hydraulik-&lt;/div&gt;&lt;div&gt;objekt&lt;br&gt;0.....∞&lt;/div&gt;" linkTarget="_blank" id="RGeOCi0uQSU0HmTcbR4D-27">
          <mxCell style="rounded=0;whiteSpace=wrap;html=1;fontFamily=Latin Modern;fontSize=13;" parent="1" vertex="1">
            <mxGeometry x="320" y="320" width="100" height="50" as="geometry" />
          </mxCell>
        </UserObject>
        <UserObject label="&lt;div&gt;Rechnnetz-&lt;/div&gt;&lt;div&gt;kennung&lt;/div&gt;" linkTarget="_blank" id="RGeOCi0uQSU0HmTcbR4D-30">
          <mxCell style="rounded=0;whiteSpace=wrap;html=1;fontFamily=Latin Modern;fillColor=#f5f5f5;fontColor=#333333;strokeColor=#666666;fontSize=13;" parent="1" vertex="1">
            <mxGeometry x="320" y="210" width="100" height="40" as="geometry" />
          </mxCell>
        </UserObject>
        <mxCell id="H4KakfRGWg1EVCRGtIzr-45" style="edgeStyle=orthogonalEdgeStyle;rounded=0;orthogonalLoop=1;jettySize=auto;html=1;entryX=0;entryY=0.5;entryDx=0;entryDy=0;fontSize=13;" parent="1" source="RGeOCi0uQSU0HmTcbR4D-33" target="RGeOCi0uQSU0HmTcbR4D-44" edge="1">
          <mxGeometry relative="1" as="geometry" />
        </mxCell>
        <mxCell id="H4KakfRGWg1EVCRGtIzr-46" style="edgeStyle=orthogonalEdgeStyle;rounded=0;orthogonalLoop=1;jettySize=auto;html=1;entryX=0;entryY=0.5;entryDx=0;entryDy=0;fontSize=13;" parent="1" source="RGeOCi0uQSU0HmTcbR4D-33" target="RGeOCi0uQSU0HmTcbR4D-45" edge="1">
          <mxGeometry relative="1" as="geometry" />
        </mxCell>
        <mxCell id="H4KakfRGWg1EVCRGtIzr-47" style="edgeStyle=orthogonalEdgeStyle;rounded=0;orthogonalLoop=1;jettySize=auto;html=1;entryX=0;entryY=0.5;entryDx=0;entryDy=0;fontSize=13;" parent="1" source="RGeOCi0uQSU0HmTcbR4D-33" target="RGeOCi0uQSU0HmTcbR4D-46" edge="1">
          <mxGeometry relative="1" as="geometry" />
        </mxCell>
        <mxCell id="H4KakfRGWg1EVCRGtIzr-48" style="edgeStyle=orthogonalEdgeStyle;rounded=0;orthogonalLoop=1;jettySize=auto;html=1;entryX=0;entryY=0.5;entryDx=0;entryDy=0;fontSize=13;" parent="1" source="RGeOCi0uQSU0HmTcbR4D-33" target="RGeOCi0uQSU0HmTcbR4D-37" edge="1">
          <mxGeometry relative="1" as="geometry" />
        </mxCell>
        <mxCell id="H4KakfRGWg1EVCRGtIzr-49" style="edgeStyle=orthogonalEdgeStyle;rounded=0;orthogonalLoop=1;jettySize=auto;html=1;fontSize=13;" parent="1" source="RGeOCi0uQSU0HmTcbR4D-33" target="RGeOCi0uQSU0HmTcbR4D-47" edge="1">
          <mxGeometry relative="1" as="geometry" />
        </mxCell>
        <mxCell id="H4KakfRGWg1EVCRGtIzr-50" style="edgeStyle=orthogonalEdgeStyle;rounded=0;orthogonalLoop=1;jettySize=auto;html=1;entryX=0;entryY=0.5;entryDx=0;entryDy=0;fontSize=13;" parent="1" source="RGeOCi0uQSU0HmTcbR4D-33" target="RGeOCi0uQSU0HmTcbR4D-48" edge="1">
          <mxGeometry relative="1" as="geometry" />
        </mxCell>
        <mxCell id="H4KakfRGWg1EVCRGtIzr-51" style="edgeStyle=orthogonalEdgeStyle;rounded=0;orthogonalLoop=1;jettySize=auto;html=1;entryX=0;entryY=0.5;entryDx=0;entryDy=0;fontSize=13;" parent="1" source="RGeOCi0uQSU0HmTcbR4D-33" target="RGeOCi0uQSU0HmTcbR4D-49" edge="1">
          <mxGeometry relative="1" as="geometry" />
        </mxCell>
        <mxCell id="H4KakfRGWg1EVCRGtIzr-52" style="edgeStyle=orthogonalEdgeStyle;rounded=0;orthogonalLoop=1;jettySize=auto;html=1;entryX=0;entryY=0.5;entryDx=0;entryDy=0;fontSize=13;" parent="1" source="RGeOCi0uQSU0HmTcbR4D-33" target="RGeOCi0uQSU0HmTcbR4D-50" edge="1">
          <mxGeometry relative="1" as="geometry" />
        </mxCell>
        <mxCell id="H4KakfRGWg1EVCRGtIzr-53" style="edgeStyle=orthogonalEdgeStyle;rounded=0;orthogonalLoop=1;jettySize=auto;html=1;entryX=0;entryY=0.5;entryDx=0;entryDy=0;fontSize=13;" parent="1" source="RGeOCi0uQSU0HmTcbR4D-33" target="RGeOCi0uQSU0HmTcbR4D-54" edge="1">
          <mxGeometry relative="1" as="geometry" />
        </mxCell>
        <mxCell id="H4KakfRGWg1EVCRGtIzr-54" style="edgeStyle=orthogonalEdgeStyle;rounded=0;orthogonalLoop=1;jettySize=auto;html=1;entryX=0;entryY=0.5;entryDx=0;entryDy=0;fontSize=13;" parent="1" source="RGeOCi0uQSU0HmTcbR4D-33" target="RGeOCi0uQSU0HmTcbR4D-55" edge="1">
          <mxGeometry relative="1" as="geometry" />
        </mxCell>
        <mxCell id="RGeOCi0uQSU0HmTcbR4D-33" value="Objektart" style="shape=rhombus;html=1;dashed=0;whiteSpace=wrap;perimeter=rhombusPerimeter;fontFamily=Latin Modern;fontSize=13;" parent="1" vertex="1">
          <mxGeometry x="460" y="310" width="90" height="70" as="geometry" />
        </mxCell>
        <UserObject label="Haltung" linkTarget="_blank" id="RGeOCi0uQSU0HmTcbR4D-37">
          <mxCell style="rounded=0;whiteSpace=wrap;html=1;fontFamily=Latin Modern;fontSize=13;fillColor=#fff2cc;strokeColor=#d6b656;" parent="1" vertex="1">
            <mxGeometry x="690" y="60" width="80" height="40" as="geometry" />
          </mxCell>
        </UserObject>
        <UserObject label="&lt;div&gt;Leitung&lt;/div&gt;" linkTarget="_blank" id="RGeOCi0uQSU0HmTcbR4D-44">
          <mxCell style="rounded=0;whiteSpace=wrap;html=1;fontFamily=Latin Modern;fontSize=13;fillColor=#fff2cc;strokeColor=#d6b656;" parent="1" vertex="1">
            <mxGeometry x="690" y="120" width="80" height="40" as="geometry" />
          </mxCell>
        </UserObject>
        <UserObject label="&lt;div&gt;Gerinne&lt;/div&gt;" linkTarget="_blank" id="RGeOCi0uQSU0HmTcbR4D-45">
          <mxCell style="rounded=0;whiteSpace=wrap;html=1;fontFamily=Latin Modern;fontSize=13;fillColor=#fff2cc;strokeColor=#d6b656;" parent="1" vertex="1">
            <mxGeometry x="690" y="180" width="80" height="40" as="geometry" />
          </mxCell>
        </UserObject>
        <UserObject label="Pumpe" linkTarget="_blank" id="RGeOCi0uQSU0HmTcbR4D-46">
          <mxCell style="rounded=0;whiteSpace=wrap;html=1;fontFamily=Latin Modern;fontSize=13;" parent="1" vertex="1">
            <mxGeometry x="690" y="240" width="80" height="40" as="geometry" />
          </mxCell>
        </UserObject>
        <UserObject label="Wehr" linkTarget="_blank" id="RGeOCi0uQSU0HmTcbR4D-47">
          <mxCell style="rounded=0;whiteSpace=wrap;html=1;fontFamily=Latin Modern;fontSize=13;" parent="1" vertex="1">
            <mxGeometry x="690" y="300" width="80" height="40" as="geometry" />
          </mxCell>
        </UserObject>
        <UserObject label="Schieber" linkTarget="_blank" id="RGeOCi0uQSU0HmTcbR4D-48">
          <mxCell style="rounded=0;whiteSpace=wrap;html=1;fontFamily=Latin Modern;fontSize=13;" parent="1" vertex="1">
            <mxGeometry x="690" y="360" width="80" height="40" as="geometry" />
          </mxCell>
        </UserObject>
        <UserObject label="Schacht" linkTarget="_blank" id="RGeOCi0uQSU0HmTcbR4D-49">
          <mxCell style="rounded=0;whiteSpace=wrap;html=1;fontFamily=Latin Modern;fontSize=13;" parent="1" vertex="1">
            <mxGeometry x="690" y="420" width="80" height="40" as="geometry" />
          </mxCell>
        </UserObject>
        <UserObject label="Speicher-bauwerk" linkTarget="_blank" id="RGeOCi0uQSU0HmTcbR4D-50">
          <mxCell style="rounded=0;whiteSpace=wrap;html=1;fontFamily=Latin Modern;fontSize=13;" parent="1" vertex="1">
            <mxGeometry x="690" y="480" width="80" height="40" as="geometry" />
          </mxCell>
        </UserObject>
        <UserObject label="Name Objekt" linkTarget="_blank" id="RGeOCi0uQSU0HmTcbR4D-52">
          <mxCell style="rounded=0;whiteSpace=wrap;html=1;fontFamily=Latin Modern;fontSize=13;fillColor=#d5e8d4;strokeColor=#82b366;" parent="1" vertex="1">
            <mxGeometry x="460" y="270" width="90" height="30" as="geometry" />
          </mxCell>
        </UserObject>
        <UserObject label="&lt;div&gt;Grund-/&lt;/div&gt;&lt;div&gt;Seitenauslass&lt;/div&gt;" linkTarget="_blank" id="RGeOCi0uQSU0HmTcbR4D-54">
          <mxCell style="rounded=0;whiteSpace=wrap;html=1;fontFamily=Latin Modern;fontSize=13;" parent="1" vertex="1">
            <mxGeometry x="690" y="540" width="80" height="40" as="geometry" />
          </mxCell>
        </UserObject>
        <UserObject label="Freier Auslass" linkTarget="_blank" id="RGeOCi0uQSU0HmTcbR4D-55">
          <mxCell style="rounded=0;whiteSpace=wrap;html=1;fontFamily=Latin Modern;fontSize=13;" parent="1" vertex="1">
            <mxGeometry x="690" y="600" width="80" height="40" as="geometry" />
          </mxCell>
        </UserObject>
        <mxCell id="H4KakfRGWg1EVCRGtIzr-6" value="" style="edgeStyle=orthogonalEdgeStyle;rounded=0;orthogonalLoop=1;jettySize=auto;html=1;fontSize=13;" parent="1" source="mGreL9vsvFHhippzRWms-1" target="H4KakfRGWg1EVCRGtIzr-2" edge="1">
          <mxGeometry relative="1" as="geometry" />
        </mxCell>
        <UserObject label="&lt;div&gt;Gebiete&lt;/div&gt;&lt;div&gt;&lt;div&gt;0..∞&lt;/div&gt;&lt;/div&gt;" link="https://www.bfr-abwasser.de/html/ISYBAU_Austauschformate_Abwasser.14.19.html" linkTarget="_blank" id="mGreL9vsvFHhippzRWms-1">
          <mxCell style="rounded=0;whiteSpace=wrap;html=1;fontFamily=Latin Modern;fontSize=13;" parent="1" vertex="1">
            <mxGeometry x="190" y="400" width="90" height="50" as="geometry" />
          </mxCell>
        </UserObject>
        <UserObject label="Gebietskennung" linkTarget="_blank" id="H4KakfRGWg1EVCRGtIzr-1">
          <mxCell style="rounded=0;whiteSpace=wrap;html=1;fontFamily=Latin Modern;fillColor=#f5f5f5;fontColor=#333333;strokeColor=#666666;fontSize=13;" parent="1" vertex="1">
            <mxGeometry x="320" y="380" width="100" height="40" as="geometry" />
          </mxCell>
        </UserObject>
        <UserObject label="Referenz Trockenwetter-kennung" linkTarget="_blank" id="H4KakfRGWg1EVCRGtIzr-2">
          <mxCell style="rounded=0;whiteSpace=wrap;html=1;fontFamily=Latin Modern;fontSize=13;" parent="1" vertex="1">
            <mxGeometry x="320" y="430" width="100" height="50" as="geometry" />
          </mxCell>
        </UserObject>
        <UserObject label="&lt;div&gt;Fläche&lt;/div&gt;&lt;div&gt;&lt;div&gt;0..∞&lt;/div&gt;&lt;/div&gt;" link="https://www.bfr-abwasser.de/html/ISYBAU_Austauschformate_Abwasser.14.20.html" linkTarget="_blank" id="H4KakfRGWg1EVCRGtIzr-4">
          <mxCell style="rounded=0;whiteSpace=wrap;html=1;fontFamily=Latin Modern;fontSize=13;" parent="1" vertex="1">
            <mxGeometry x="190" y="520" width="90" height="50" as="geometry" />
          </mxCell>
        </UserObject>
        <mxCell id="H4KakfRGWg1EVCRGtIzr-8" value="" style="edgeStyle=orthogonalEdgeStyle;rounded=0;orthogonalLoop=1;jettySize=auto;html=1;entryX=0;entryY=0.5;entryDx=0;entryDy=0;exitX=1;exitY=0.5;exitDx=0;exitDy=0;fontSize=13;" parent="1" source="mGreL9vsvFHhippzRWms-1" target="H4KakfRGWg1EVCRGtIzr-1" edge="1">
          <mxGeometry relative="1" as="geometry">
            <mxPoint x="290" y="443" as="sourcePoint" />
            <mxPoint x="330" y="470" as="targetPoint" />
          </mxGeometry>
        </mxCell>
        <mxCell id="H4KakfRGWg1EVCRGtIzr-9" value="" style="edgeStyle=orthogonalEdgeStyle;rounded=0;orthogonalLoop=1;jettySize=auto;html=1;entryX=0;entryY=0.5;entryDx=0;entryDy=0;exitX=1;exitY=0.5;exitDx=0;exitDy=0;fontSize=13;" parent="1" source="RGeOCi0uQSU0HmTcbR4D-24" target="RGeOCi0uQSU0HmTcbR4D-27" edge="1">
          <mxGeometry relative="1" as="geometry">
            <mxPoint x="290" y="483" as="sourcePoint" />
            <mxPoint x="330" y="450" as="targetPoint" />
          </mxGeometry>
        </mxCell>
        <mxCell id="H4KakfRGWg1EVCRGtIzr-10" value="" style="edgeStyle=orthogonalEdgeStyle;rounded=0;orthogonalLoop=1;jettySize=auto;html=1;entryX=0;entryY=0.5;entryDx=0;entryDy=0;exitX=1;exitY=0.5;exitDx=0;exitDy=0;fontSize=13;" parent="1" source="RGeOCi0uQSU0HmTcbR4D-24" target="RGeOCi0uQSU0HmTcbR4D-30" edge="1">
          <mxGeometry relative="1" as="geometry">
            <mxPoint x="290" y="295" as="sourcePoint" />
            <mxPoint x="330" y="350" as="targetPoint" />
          </mxGeometry>
        </mxCell>
        <mxCell id="H4KakfRGWg1EVCRGtIzr-17" value="" style="edgeStyle=orthogonalEdgeStyle;rounded=0;orthogonalLoop=1;jettySize=auto;html=1;exitX=1;exitY=0.5;exitDx=0;exitDy=0;fontSize=13;" parent="1" source="H4KakfRGWg1EVCRGtIzr-4" target="H4KakfRGWg1EVCRGtIzr-19" edge="1">
          <mxGeometry relative="1" as="geometry">
            <mxPoint x="280" y="552" as="sourcePoint" />
          </mxGeometry>
        </mxCell>
        <UserObject label="Flächennummer" linkTarget="_blank" id="H4KakfRGWg1EVCRGtIzr-18">
          <mxCell style="rounded=0;whiteSpace=wrap;html=1;fontFamily=Latin Modern;fillColor=#f5f5f5;fontColor=#333333;strokeColor=#666666;fontSize=13;" parent="1" vertex="1">
            <mxGeometry x="320" y="500" width="100" height="40" as="geometry" />
          </mxCell>
        </UserObject>
        <UserObject label="Referenz Gebietskennung" linkTarget="_blank" id="H4KakfRGWg1EVCRGtIzr-19">
          <mxCell style="rounded=0;whiteSpace=wrap;html=1;fontFamily=Latin Modern;fontSize=13;" parent="1" vertex="1">
            <mxGeometry x="320" y="550" width="100" height="40" as="geometry" />
          </mxCell>
        </UserObject>
        <mxCell id="H4KakfRGWg1EVCRGtIzr-20" value="" style="edgeStyle=orthogonalEdgeStyle;rounded=0;orthogonalLoop=1;jettySize=auto;html=1;entryX=0;entryY=0.5;entryDx=0;entryDy=0;exitX=1;exitY=0.5;exitDx=0;exitDy=0;fontSize=13;" parent="1" source="H4KakfRGWg1EVCRGtIzr-4" target="H4KakfRGWg1EVCRGtIzr-18" edge="1">
          <mxGeometry relative="1" as="geometry">
            <mxPoint x="300" y="560" as="sourcePoint" />
            <mxPoint x="330" y="590" as="targetPoint" />
          </mxGeometry>
        </mxCell>
        <mxCell id="H4KakfRGWg1EVCRGtIzr-22" value="" style="edgeStyle=orthogonalEdgeStyle;rounded=0;orthogonalLoop=1;jettySize=auto;html=1;fontSize=13;" parent="1" source="H4KakfRGWg1EVCRGtIzr-23" target="H4KakfRGWg1EVCRGtIzr-24" edge="1">
          <mxGeometry relative="1" as="geometry" />
        </mxCell>
        <UserObject label="&lt;div&gt;System-belastungen&lt;/div&gt;&lt;div&gt;&lt;div&gt;&lt;div&gt;0..∞&lt;/div&gt;&lt;/div&gt;&lt;/div&gt;" link="https://www.bfr-abwasser.de/html/ISYBAU_Austauschformate_Abwasser.14.21.html" linkTarget="_blank" id="H4KakfRGWg1EVCRGtIzr-23">
          <mxCell style="rounded=0;whiteSpace=wrap;html=1;fontFamily=Latin Modern;fontSize=13;" parent="1" vertex="1">
            <mxGeometry x="190" y="657.5" width="90" height="55" as="geometry" />
          </mxCell>
        </UserObject>
        <mxCell id="H4KakfRGWg1EVCRGtIzr-34" value="" style="edgeStyle=orthogonalEdgeStyle;rounded=0;orthogonalLoop=1;jettySize=auto;html=1;entryX=0;entryY=0.5;entryDx=0;entryDy=0;fontSize=13;" parent="1" source="H4KakfRGWg1EVCRGtIzr-24" target="H4KakfRGWg1EVCRGtIzr-31" edge="1">
          <mxGeometry relative="1" as="geometry" />
        </mxCell>
        <UserObject label="&lt;div&gt;Trockenwetter-abflussspende&lt;/div&gt;&lt;div&gt;0..∞&lt;/div&gt;" linkTarget="_blank" id="H4KakfRGWg1EVCRGtIzr-24">
          <mxCell style="rounded=0;whiteSpace=wrap;html=1;fontFamily=Latin Modern;fontSize=13;" parent="1" vertex="1">
            <mxGeometry x="320" y="660" width="100" height="50" as="geometry" />
          </mxCell>
        </UserObject>
        <mxCell id="H4KakfRGWg1EVCRGtIzr-33" value="" style="edgeStyle=orthogonalEdgeStyle;rounded=0;orthogonalLoop=1;jettySize=auto;html=1;fontSize=13;" parent="1" source="H4KakfRGWg1EVCRGtIzr-25" target="H4KakfRGWg1EVCRGtIzr-32" edge="1">
          <mxGeometry relative="1" as="geometry" />
        </mxCell>
        <UserObject label="&lt;div&gt;Einzeleinleiter&lt;/div&gt;&lt;div&gt;0..∞&lt;/div&gt;" linkTarget="_blank" id="H4KakfRGWg1EVCRGtIzr-25">
          <mxCell style="rounded=0;whiteSpace=wrap;html=1;fontFamily=Latin Modern;fontSize=13;" parent="1" vertex="1">
            <mxGeometry x="320" y="720" width="100" height="40" as="geometry" />
          </mxCell>
        </UserObject>
        <mxCell id="H4KakfRGWg1EVCRGtIzr-30" value="" style="edgeStyle=orthogonalEdgeStyle;rounded=0;orthogonalLoop=1;jettySize=auto;html=1;fontSize=13;" parent="1" source="H4KakfRGWg1EVCRGtIzr-26" target="H4KakfRGWg1EVCRGtIzr-29" edge="1">
          <mxGeometry relative="1" as="geometry" />
        </mxCell>
        <UserObject label="&lt;div&gt;Niederschläge&lt;/div&gt;&lt;div&gt;&lt;div&gt;0..∞&lt;/div&gt;&lt;/div&gt;" linkTarget="_blank" id="H4KakfRGWg1EVCRGtIzr-26">
          <mxCell style="rounded=0;whiteSpace=wrap;html=1;fontFamily=Latin Modern;fontSize=13;" parent="1" vertex="1">
            <mxGeometry x="320" y="610" width="100" height="40" as="geometry" />
          </mxCell>
        </UserObject>
        <mxCell id="H4KakfRGWg1EVCRGtIzr-27" value="" style="edgeStyle=orthogonalEdgeStyle;rounded=0;orthogonalLoop=1;jettySize=auto;html=1;entryX=0;entryY=0.5;entryDx=0;entryDy=0;exitX=1;exitY=0.5;exitDx=0;exitDy=0;fontSize=13;" parent="1" source="H4KakfRGWg1EVCRGtIzr-23" target="H4KakfRGWg1EVCRGtIzr-25" edge="1">
          <mxGeometry relative="1" as="geometry">
            <mxPoint x="290" y="883" as="sourcePoint" />
            <mxPoint x="330" y="850" as="targetPoint" />
          </mxGeometry>
        </mxCell>
        <mxCell id="H4KakfRGWg1EVCRGtIzr-28" value="" style="edgeStyle=orthogonalEdgeStyle;rounded=0;orthogonalLoop=1;jettySize=auto;html=1;entryX=0;entryY=0.5;entryDx=0;entryDy=0;exitX=1;exitY=0.5;exitDx=0;exitDy=0;fontSize=13;" parent="1" source="H4KakfRGWg1EVCRGtIzr-23" target="H4KakfRGWg1EVCRGtIzr-26" edge="1">
          <mxGeometry relative="1" as="geometry">
            <mxPoint x="290" y="695" as="sourcePoint" />
            <mxPoint x="330" y="750" as="targetPoint" />
          </mxGeometry>
        </mxCell>
        <UserObject label="&lt;div&gt;Niederschlags-kennung&lt;/div&gt;" linkTarget="_blank" id="H4KakfRGWg1EVCRGtIzr-29">
          <mxCell style="rounded=0;whiteSpace=wrap;html=1;fontFamily=Latin Modern;fillColor=#f5f5f5;fontColor=#333333;strokeColor=#666666;fontSize=13;" parent="1" vertex="1">
            <mxGeometry x="460" y="610" width="100" height="40" as="geometry" />
          </mxCell>
        </UserObject>
        <UserObject label="&lt;div&gt;Trockenwetter-kennung&lt;/div&gt;" linkTarget="_blank" id="H4KakfRGWg1EVCRGtIzr-31">
          <mxCell style="rounded=0;whiteSpace=wrap;html=1;fontFamily=Latin Modern;fillColor=#f5f5f5;fontColor=#333333;strokeColor=#666666;fontSize=13;" parent="1" vertex="1">
            <mxGeometry x="460" y="665" width="100" height="40" as="geometry" />
          </mxCell>
        </UserObject>
        <UserObject label="&lt;div&gt;&lt;font&gt;Einleiterkollektiv-kennung&lt;/font&gt;&lt;/div&gt;" linkTarget="_blank" id="H4KakfRGWg1EVCRGtIzr-32">
          <mxCell style="rounded=0;whiteSpace=wrap;html=1;fontFamily=Latin Modern;fillColor=#f5f5f5;fontColor=#333333;strokeColor=#666666;fontSize=13;" parent="1" vertex="1">
            <mxGeometry x="460" y="720" width="100" height="40" as="geometry" />
          </mxCell>
        </UserObject>
        <mxCell id="H4KakfRGWg1EVCRGtIzr-41" value="" style="edgeStyle=orthogonalEdgeStyle;rounded=0;orthogonalLoop=1;jettySize=auto;html=1;fontSize=13;" parent="1" source="H4KakfRGWg1EVCRGtIzr-35" target="H4KakfRGWg1EVCRGtIzr-40" edge="1">
          <mxGeometry relative="1" as="geometry" />
        </mxCell>
        <mxCell id="H4KakfRGWg1EVCRGtIzr-59" style="edgeStyle=orthogonalEdgeStyle;rounded=0;orthogonalLoop=1;jettySize=auto;html=1;entryX=0;entryY=0.5;entryDx=0;entryDy=0;fontSize=13;" parent="1" source="H4KakfRGWg1EVCRGtIzr-62" target="H4KakfRGWg1EVCRGtIzr-57" edge="1">
          <mxGeometry relative="1" as="geometry">
            <mxPoint x="240" y="1010" as="targetPoint" />
            <Array as="points">
              <mxPoint x="360" y="1025" />
            </Array>
          </mxGeometry>
        </mxCell>
        <UserObject label="&lt;div&gt;Berechnungen&lt;/div&gt;&lt;div&gt;&lt;div&gt;0..∞&lt;/div&gt;&lt;/div&gt;" link="https://www.bfr-abwasser.de/html/ISYBAU_Austauschformate_Abwasser.14.22.html" linkTarget="_blank" id="H4KakfRGWg1EVCRGtIzr-35">
          <mxCell style="rounded=0;whiteSpace=wrap;html=1;fontFamily=Latin Modern;fontSize=13;" parent="1" vertex="1">
            <mxGeometry x="190" y="810" width="90" height="45" as="geometry" />
          </mxCell>
        </UserObject>
        <UserObject label="Referenz Niederschlags- kennung" linkTarget="_blank" id="H4KakfRGWg1EVCRGtIzr-37">
          <mxCell style="rounded=0;whiteSpace=wrap;html=1;fontFamily=Latin Modern;fontSize=13;" parent="1" vertex="1">
            <mxGeometry x="460" y="780" width="100" height="50" as="geometry" />
          </mxCell>
        </UserObject>
        <UserObject label="Referenz Einleiterkollektiv-kennung" linkTarget="_blank" id="H4KakfRGWg1EVCRGtIzr-38">
          <mxCell style="rounded=0;whiteSpace=wrap;html=1;fontFamily=Latin Modern;fontSize=13;" parent="1" vertex="1">
            <mxGeometry x="460" y="850" width="100" height="50" as="geometry" />
          </mxCell>
        </UserObject>
        <mxCell id="H4KakfRGWg1EVCRGtIzr-70" style="edgeStyle=orthogonalEdgeStyle;rounded=0;orthogonalLoop=1;jettySize=auto;html=1;fontSize=13;" parent="1" source="H4KakfRGWg1EVCRGtIzr-40" target="H4KakfRGWg1EVCRGtIzr-37" edge="1">
          <mxGeometry relative="1" as="geometry" />
        </mxCell>
        <mxCell id="H4KakfRGWg1EVCRGtIzr-71" style="edgeStyle=orthogonalEdgeStyle;rounded=0;orthogonalLoop=1;jettySize=auto;html=1;entryX=0;entryY=0.5;entryDx=0;entryDy=0;fontSize=13;" parent="1" source="H4KakfRGWg1EVCRGtIzr-40" target="H4KakfRGWg1EVCRGtIzr-38" edge="1">
          <mxGeometry relative="1" as="geometry" />
        </mxCell>
        <UserObject label="Berechnungsinfo" linkTarget="_blank" id="H4KakfRGWg1EVCRGtIzr-40">
          <mxCell style="rounded=0;whiteSpace=wrap;html=1;fontFamily=Latin Modern;fontSize=13;" parent="1" vertex="1">
            <mxGeometry x="320" y="812.5" width="100" height="40" as="geometry" />
          </mxCell>
        </UserObject>
        <mxCell id="H4KakfRGWg1EVCRGtIzr-56" style="edgeStyle=orthogonalEdgeStyle;rounded=0;orthogonalLoop=1;jettySize=auto;html=1;exitX=0.5;exitY=1;exitDx=0;exitDy=0;fontSize=13;" parent="1" source="RGeOCi0uQSU0HmTcbR4D-2" target="RGeOCi0uQSU0HmTcbR4D-2" edge="1">
          <mxGeometry relative="1" as="geometry" />
        </mxCell>
        <mxCell id="H4KakfRGWg1EVCRGtIzr-61" value="" style="edgeStyle=orthogonalEdgeStyle;rounded=0;orthogonalLoop=1;jettySize=auto;html=1;fontSize=13;" parent="1" source="H4KakfRGWg1EVCRGtIzr-57" target="H4KakfRGWg1EVCRGtIzr-60" edge="1">
          <mxGeometry relative="1" as="geometry" />
        </mxCell>
        <mxCell id="H4KakfRGWg1EVCRGtIzr-57" value="Objektart" style="shape=rhombus;html=1;dashed=0;whiteSpace=wrap;perimeter=rhombusPerimeter;fontFamily=Latin Modern;fontSize=13;" parent="1" vertex="1">
          <mxGeometry x="465" y="990" width="90" height="70" as="geometry" />
        </mxCell>
        <UserObject label="objektbezogene Ergebnisse" linkTarget="_blank" id="H4KakfRGWg1EVCRGtIzr-60">
          <mxCell style="rounded=0;whiteSpace=wrap;html=1;fontFamily=Latin Modern;fontSize=13;" parent="1" vertex="1">
            <mxGeometry x="600" y="1005" width="120" height="40" as="geometry" />
          </mxCell>
        </UserObject>
        <mxCell id="H4KakfRGWg1EVCRGtIzr-63" value="" style="edgeStyle=orthogonalEdgeStyle;rounded=0;orthogonalLoop=1;jettySize=auto;html=1;entryX=0;entryY=0.5;entryDx=0;entryDy=0;fontSize=13;" parent="1" source="H4KakfRGWg1EVCRGtIzr-35" target="H4KakfRGWg1EVCRGtIzr-62" edge="1">
          <mxGeometry relative="1" as="geometry">
            <mxPoint x="445" y="955" as="targetPoint" />
            <mxPoint x="240" y="855" as="sourcePoint" />
            <Array as="points">
              <mxPoint x="240" y="955" />
            </Array>
          </mxGeometry>
        </mxCell>
        <mxCell id="H4KakfRGWg1EVCRGtIzr-66" value="" style="edgeStyle=orthogonalEdgeStyle;rounded=0;orthogonalLoop=1;jettySize=auto;html=1;fontSize=13;" parent="1" source="H4KakfRGWg1EVCRGtIzr-62" target="H4KakfRGWg1EVCRGtIzr-64" edge="1">
          <mxGeometry relative="1" as="geometry" />
        </mxCell>
        <mxCell id="H4KakfRGWg1EVCRGtIzr-68" style="edgeStyle=orthogonalEdgeStyle;rounded=0;orthogonalLoop=1;jettySize=auto;html=1;entryX=0;entryY=0.5;entryDx=0;entryDy=0;fontSize=13;" parent="1" source="H4KakfRGWg1EVCRGtIzr-62" target="H4KakfRGWg1EVCRGtIzr-67" edge="1">
          <mxGeometry relative="1" as="geometry">
            <Array as="points">
              <mxPoint x="360" y="1110" />
            </Array>
          </mxGeometry>
        </mxCell>
        <UserObject label="&lt;div&gt;Hydraulikobjekt&lt;/div&gt;" linkTarget="_blank" id="H4KakfRGWg1EVCRGtIzr-62">
          <mxCell style="rounded=0;whiteSpace=wrap;html=1;fontFamily=Latin Modern;fontSize=13;" parent="1" vertex="1">
            <mxGeometry x="320" y="935" width="100" height="40" as="geometry" />
          </mxCell>
        </UserObject>
        <UserObject label="Name Objekt" linkTarget="_blank" id="H4KakfRGWg1EVCRGtIzr-64">
          <mxCell style="rounded=0;whiteSpace=wrap;html=1;fontFamily=Latin Modern;fontSize=13;fillColor=#d5e8d4;strokeColor=#82b366;" parent="1" vertex="1">
            <mxGeometry x="460" y="940" width="100" height="30" as="geometry" />
          </mxCell>
        </UserObject>
        <UserObject label="&lt;div&gt;Dokumente&lt;/div&gt;&lt;div&gt;0..∞&lt;/div&gt;" linkTarget="_blank" id="H4KakfRGWg1EVCRGtIzr-67">
          <mxCell style="rounded=0;whiteSpace=wrap;html=1;fontFamily=Latin Modern;fontSize=13;" parent="1" vertex="1">
            <mxGeometry x="465" y="1090" width="95" height="40" as="geometry" />
          </mxCell>
        </UserObject>
        <mxCell id="xYtCWhQUM0GvvKmP2PAd-9" value="" style="edgeStyle=orthogonalEdgeStyle;rounded=0;orthogonalLoop=1;jettySize=auto;html=1;" parent="1" source="rIYrMIPJeFG_pnFg1OFR-1" target="xYtCWhQUM0GvvKmP2PAd-8" edge="1">
          <mxGeometry relative="1" as="geometry">
            <Array as="points">
              <mxPoint x="90" y="120" />
            </Array>
          </mxGeometry>
        </mxCell>
        <UserObject label="Hydraulikdatenkollektiv" link="https://www.bfr-abwasser.de/html/A7-6Hydraulikdaten.html" linkTarget="_blank" id="rIYrMIPJeFG_pnFg1OFR-1">
          <mxCell style="rounded=0;whiteSpace=wrap;html=1;fontFamily=Latin Modern;fontSize=13;" parent="1" vertex="1">
            <mxGeometry x="20" y="30" width="140" height="50" as="geometry" />
          </mxCell>
        </UserObject>
        <mxCell id="8MrMpzrLchW73DIUa7IR-1" value="ifcPipeSegment/&lt;br&gt;ifcFlowSegment&lt;br&gt;(vgl. matthias)" style="ellipse;whiteSpace=wrap;html=1;fillColor=#fff2cc;strokeColor=#d6b656;" parent="1" vertex="1">
          <mxGeometry x="930" y="50" width="120" height="80" as="geometry" />
        </mxCell>
        <mxCell id="8MrMpzrLchW73DIUa7IR-4" value="" style="endArrow=none;dashed=1;html=1;dashPattern=1 3;strokeWidth=2;rounded=0;entryX=0.035;entryY=0.132;entryDx=0;entryDy=0;entryPerimeter=0;exitX=0.703;exitY=0.929;exitDx=0;exitDy=0;exitPerimeter=0;" parent="1" source="8MrMpzrLchW73DIUa7IR-1" target="RGeOCi0uQSU0HmTcbR4D-45" edge="1">
          <mxGeometry width="50" height="50" relative="1" as="geometry">
            <mxPoint x="440" y="130" as="sourcePoint" />
            <mxPoint x="330" y="480" as="targetPoint" />
          </mxGeometry>
        </mxCell>
        <mxCell id="8MrMpzrLchW73DIUa7IR-5" value="" style="endArrow=none;dashed=1;html=1;dashPattern=1 3;strokeWidth=2;rounded=0;entryX=0.974;entryY=0.665;entryDx=0;entryDy=0;entryPerimeter=0;" parent="1" source="RGeOCi0uQSU0HmTcbR4D-44" target="8MrMpzrLchW73DIUa7IR-1" edge="1">
          <mxGeometry width="50" height="50" relative="1" as="geometry">
            <mxPoint x="280" y="530" as="sourcePoint" />
            <mxPoint x="330" y="480" as="targetPoint" />
          </mxGeometry>
        </mxCell>
        <mxCell id="8MrMpzrLchW73DIUa7IR-6" value="IfcPump" style="ellipse;whiteSpace=wrap;html=1;" parent="1" vertex="1">
          <mxGeometry x="860" y="182.5" width="120" height="80" as="geometry" />
        </mxCell>
        <mxCell id="8MrMpzrLchW73DIUa7IR-7" value="" style="endArrow=none;dashed=1;html=1;dashPattern=1 3;strokeWidth=2;rounded=0;entryX=0.015;entryY=0.567;entryDx=0;entryDy=0;entryPerimeter=0;exitX=1;exitY=0.5;exitDx=0;exitDy=0;" parent="1" source="RGeOCi0uQSU0HmTcbR4D-46" target="8MrMpzrLchW73DIUa7IR-6" edge="1">
          <mxGeometry width="50" height="50" relative="1" as="geometry">
            <mxPoint x="474" y="104" as="sourcePoint" />
            <mxPoint x="703" y="195" as="targetPoint" />
          </mxGeometry>
        </mxCell>
        <mxCell id="8MrMpzrLchW73DIUa7IR-8" value="IFCFLowController -&amp;gt; ObjectType = Wehr/ Weir" style="ellipse;whiteSpace=wrap;html=1;" parent="1" vertex="1">
          <mxGeometry x="1010" y="280" width="120" height="80" as="geometry" />
        </mxCell>
        <mxCell id="8MrMpzrLchW73DIUa7IR-9" value="" style="endArrow=none;dashed=1;html=1;dashPattern=1 3;strokeWidth=2;rounded=0;exitX=0.979;exitY=0.39;exitDx=0;exitDy=0;exitPerimeter=0;" parent="1" source="RGeOCi0uQSU0HmTcbR4D-47" target="8MrMpzrLchW73DIUa7IR-8" edge="1">
          <mxGeometry width="50" height="50" relative="1" as="geometry">
            <mxPoint x="780" y="320" as="sourcePoint" />
            <mxPoint x="860" y="320" as="targetPoint" />
          </mxGeometry>
        </mxCell>
        <mxCell id="8MrMpzrLchW73DIUa7IR-11" value="IfcValce" style="ellipse;whiteSpace=wrap;html=1;" parent="1" vertex="1">
          <mxGeometry x="870" y="340" width="120" height="80" as="geometry" />
        </mxCell>
        <mxCell id="8MrMpzrLchW73DIUa7IR-12" value="" style="endArrow=none;dashed=1;html=1;dashPattern=1 3;strokeWidth=2;rounded=0;exitX=0.979;exitY=0.39;exitDx=0;exitDy=0;exitPerimeter=0;" parent="1" target="8MrMpzrLchW73DIUa7IR-11" edge="1">
          <mxGeometry width="50" height="50" relative="1" as="geometry">
            <mxPoint x="768" y="376" as="sourcePoint" />
            <mxPoint x="860" y="380" as="targetPoint" />
          </mxGeometry>
        </mxCell>
        <mxCell id="8MrMpzrLchW73DIUa7IR-13" value="IfcDistributionChamberElement&lt;br&gt;(vgl Matthias)" style="ellipse;whiteSpace=wrap;html=1;" parent="1" vertex="1">
          <mxGeometry x="951" y="407.5" width="170" height="65" as="geometry" />
        </mxCell>
        <mxCell id="8MrMpzrLchW73DIUa7IR-14" value="" style="endArrow=none;dashed=1;html=1;dashPattern=1 3;strokeWidth=2;rounded=0;entryX=0;entryY=0.5;entryDx=0;entryDy=0;exitX=0.971;exitY=0.406;exitDx=0;exitDy=0;exitPerimeter=0;" parent="1" source="RGeOCi0uQSU0HmTcbR4D-49" target="8MrMpzrLchW73DIUa7IR-13" edge="1">
          <mxGeometry width="50" height="50" relative="1" as="geometry">
            <mxPoint x="780" y="270" as="sourcePoint" />
            <mxPoint x="872" y="238" as="targetPoint" />
          </mxGeometry>
        </mxCell>
        <mxCell id="8MrMpzrLchW73DIUa7IR-15" value="&lt;div&gt;IfcTank&lt;br&gt;PreDefinedTyp: STORAGE&lt;/div&gt;" style="ellipse;whiteSpace=wrap;html=1;" parent="1" vertex="1">
          <mxGeometry x="1121" y="460" width="120" height="80" as="geometry" />
        </mxCell>
        <mxCell id="8MrMpzrLchW73DIUa7IR-16" value="" style="endArrow=none;dashed=1;html=1;dashPattern=1 3;strokeWidth=2;rounded=0;exitX=1;exitY=0.5;exitDx=0;exitDy=0;entryX=0;entryY=0.5;entryDx=0;entryDy=0;" parent="1" source="RGeOCi0uQSU0HmTcbR4D-50" target="8MrMpzrLchW73DIUa7IR-15" edge="1">
          <mxGeometry width="50" height="50" relative="1" as="geometry">
            <mxPoint x="778" y="446" as="sourcePoint" />
            <mxPoint x="930" y="500" as="targetPoint" />
          </mxGeometry>
        </mxCell>
        <UserObject label="&lt;strong data-end=&quot;1493&quot; data-start=&quot;1464&quot;&gt;&lt;code data-end=&quot;1491&quot; data-start=&quot;1472&quot;&gt;IfcLiquidTerminal&lt;/code&gt;&lt;/strong&gt;&lt;br&gt;UserDefTyp: OUTLET" link="https://ifc43-docs.standards.buildingsmart.org/IFC/RELEASE/IFC4x3/HTML/lexical/IfcFlowTerminal.htm" linkTarget="_blank" id="8MrMpzrLchW73DIUa7IR-17">
          <mxCell style="ellipse;whiteSpace=wrap;html=1;" parent="1" vertex="1">
            <mxGeometry x="1010" y="530" width="120" height="60" as="geometry" />
          </mxCell>
        </UserObject>
        <mxCell id="8MrMpzrLchW73DIUa7IR-18" value="" style="endArrow=none;dashed=1;html=1;dashPattern=1 3;strokeWidth=2;rounded=0;entryX=0;entryY=0.5;entryDx=0;entryDy=0;exitX=1;exitY=0.5;exitDx=0;exitDy=0;" parent="1" source="RGeOCi0uQSU0HmTcbR4D-54" target="8MrMpzrLchW73DIUa7IR-17" edge="1">
          <mxGeometry width="50" height="50" relative="1" as="geometry">
            <mxPoint x="790" y="560" as="sourcePoint" />
            <mxPoint x="1121" y="559.68" as="targetPoint" />
          </mxGeometry>
        </mxCell>
        <mxCell id="8MrMpzrLchW73DIUa7IR-19" value="" style="endArrow=none;dashed=1;html=1;dashPattern=1 3;strokeWidth=2;rounded=0;exitX=1.011;exitY=0.374;exitDx=0;exitDy=0;exitPerimeter=0;" parent="1" source="RGeOCi0uQSU0HmTcbR4D-55" target="8MrMpzrLchW73DIUa7IR-17" edge="1">
          <mxGeometry width="50" height="50" relative="1" as="geometry">
            <mxPoint x="780" y="570" as="sourcePoint" />
            <mxPoint x="1020" y="570" as="targetPoint" />
          </mxGeometry>
        </mxCell>
        <mxCell id="8MrMpzrLchW73DIUa7IR-20" value="&lt;div&gt;TYP: Freier Auslass&lt;/div&gt;&lt;div&gt;&lt;br&gt;&lt;/div&gt;" style="edgeLabel;html=1;align=center;verticalAlign=middle;resizable=0;points=[];" parent="8MrMpzrLchW73DIUa7IR-19" vertex="1" connectable="0">
          <mxGeometry x="-0.2063" y="-2" relative="1" as="geometry">
            <mxPoint x="22" y="21" as="offset" />
          </mxGeometry>
        </mxCell>
        <mxCell id="xYtCWhQUM0GvvKmP2PAd-1" value="" style="endArrow=none;dashed=1;html=1;dashPattern=1 3;strokeWidth=2;rounded=0;entryX=1;entryY=0.5;entryDx=0;entryDy=0;exitX=0;exitY=0.25;exitDx=0;exitDy=0;" parent="1" source="RGeOCi0uQSU0HmTcbR4D-37" target="8MrMpzrLchW73DIUa7IR-1" edge="1">
          <mxGeometry width="50" height="50" relative="1" as="geometry">
            <mxPoint x="700" y="139" as="sourcePoint" />
            <mxPoint x="507" y="83" as="targetPoint" />
          </mxGeometry>
        </mxCell>
        <mxCell id="xYtCWhQUM0GvvKmP2PAd-15" style="edgeStyle=orthogonalEdgeStyle;rounded=0;orthogonalLoop=1;jettySize=auto;html=1;" parent="1" source="xYtCWhQUM0GvvKmP2PAd-8" target="xYtCWhQUM0GvvKmP2PAd-14" edge="1">
          <mxGeometry relative="1" as="geometry" />
        </mxCell>
        <mxCell id="xYtCWhQUM0GvvKmP2PAd-8" value="Metadaten (Hyd. Ersatzmodel)" style="whiteSpace=wrap;html=1;fontSize=13;fontFamily=Latin Modern;rounded=0;" parent="1" vertex="1">
          <mxGeometry x="310" y="80" width="120" height="60" as="geometry" />
        </mxCell>
        <UserObject label="Name Objekt" linkTarget="_blank" id="xYtCWhQUM0GvvKmP2PAd-14">
          <mxCell style="rounded=0;whiteSpace=wrap;html=1;fontFamily=Latin Modern;fontSize=13;fillColor=#d5e8d4;strokeColor=#82b366;" parent="1" vertex="1">
            <mxGeometry x="467.5" y="75" width="90" height="30" as="geometry" />
          </mxCell>
        </UserObject>
        <mxCell id="SO0SVue-XmQTItUhd23R-2" value="&lt;div style=&quot;color: #cccccc;background-color: #1f1f1f;font-family: Consolas, &#39;Courier New&#39;, monospace;font-weight: normal;font-size: 14px;line-height: 19px;white-space: pre;&quot;&gt;&lt;div&gt;&lt;span style=&quot;color: #cccccc;&quot;&gt;Modellregen&lt;br&gt; n=0,373&lt;/span&gt;&lt;/div&gt;&lt;/div&gt;" style="rounded=1;whiteSpace=wrap;html=1;" vertex="1" parent="1">
          <mxGeometry x="160" y="1180" width="120" height="60" as="geometry" />
        </mxCell>
        <mxCell id="SO0SVue-XmQTItUhd23R-3" value="&lt;div style=&quot;color: rgb(204, 204, 204); background-color: rgb(31, 31, 31); font-family: Consolas, &amp;quot;Courier New&amp;quot;, monospace; font-weight: normal; font-size: 14px; line-height: 19px; white-space: pre;&quot;&gt;&lt;div&gt;&lt;span style=&quot;color: rgb(204, 204, 204);&quot;&gt;Modellregen&lt;br&gt; n=0,181&lt;/span&gt;&lt;/div&gt;&lt;/div&gt;" style="rounded=1;whiteSpace=wrap;html=1;" vertex="1" parent="1">
          <mxGeometry x="160" y="1270" width="120" height="60" as="geometry" />
        </mxCell>
        <mxCell id="SO0SVue-XmQTItUhd23R-4" value="" style="endArrow=none;dashed=1;html=1;dashPattern=1 3;strokeWidth=2;rounded=0;entryX=0;entryY=0.75;entryDx=0;entryDy=0;exitX=0.339;exitY=-0.013;exitDx=0;exitDy=0;exitPerimeter=0;" edge="1" parent="1" source="SO0SVue-XmQTItUhd23R-2" target="H4KakfRGWg1EVCRGtIzr-37">
          <mxGeometry width="50" height="50" relative="1" as="geometry">
            <mxPoint x="760" y="990" as="sourcePoint" />
            <mxPoint x="810" y="940" as="targetPoint" />
          </mxGeometry>
        </mxCell>
        <mxCell id="SO0SVue-XmQTItUhd23R-5" value="" style="endArrow=none;dashed=1;html=1;dashPattern=1 3;strokeWidth=2;rounded=0;entryX=0.029;entryY=0.868;entryDx=0;entryDy=0;exitX=1;exitY=0.25;exitDx=0;exitDy=0;entryPerimeter=0;" edge="1" parent="1" source="SO0SVue-XmQTItUhd23R-3" target="H4KakfRGWg1EVCRGtIzr-37">
          <mxGeometry width="50" height="50" relative="1" as="geometry">
            <mxPoint x="270" y="1426" as="sourcePoint" />
            <mxPoint x="414" y="1100" as="targetPoint" />
          </mxGeometry>
        </mxCell>
        <mxCell id="SO0SVue-XmQTItUhd23R-6" value="&lt;div&gt;IFC.PipeSegment&lt;/div&gt;&lt;div&gt;Haltung 1208&lt;/div&gt;" style="rounded=1;whiteSpace=wrap;html=1;" vertex="1" parent="1">
          <mxGeometry x="480" y="1230" width="120" height="60" as="geometry" />
        </mxCell>
        <mxCell id="SO0SVue-XmQTItUhd23R-9" value="" style="endArrow=none;dashed=1;html=1;dashPattern=1 3;strokeWidth=2;rounded=0;entryX=0;entryY=0.25;entryDx=0;entryDy=0;exitX=1;exitY=0.5;exitDx=0;exitDy=0;" edge="1" parent="1" source="SO0SVue-XmQTItUhd23R-2" target="SO0SVue-XmQTItUhd23R-6">
          <mxGeometry width="50" height="50" relative="1" as="geometry">
            <mxPoint x="480" y="1300" as="sourcePoint" />
            <mxPoint x="435" y="1210" as="targetPoint" />
          </mxGeometry>
        </mxCell>
        <mxCell id="SO0SVue-XmQTItUhd23R-10" value="" style="endArrow=none;dashed=1;html=1;dashPattern=1 3;strokeWidth=2;rounded=0;entryX=0;entryY=0.5;entryDx=0;entryDy=0;" edge="1" parent="1" source="SO0SVue-XmQTItUhd23R-3" target="SO0SVue-XmQTItUhd23R-6">
          <mxGeometry width="50" height="50" relative="1" as="geometry">
            <mxPoint x="282.5" y="1299.58" as="sourcePoint" />
            <mxPoint x="437.5" y="1299.58" as="targetPoint" />
          </mxGeometry>
        </mxCell>
        <mxCell id="SO0SVue-XmQTItUhd23R-13" value="PSet&lt;br&gt;ErgHaltungType" style="swimlane;fontStyle=0;childLayout=stackLayout;horizontal=1;startSize=30;horizontalStack=0;resizeParent=1;resizeParentMax=0;resizeLast=0;collapsible=1;marginBottom=0;whiteSpace=wrap;html=1;" vertex="1" parent="1">
          <mxGeometry x="550" y="1390" width="220" height="120" as="geometry" />
        </mxCell>
        <mxCell id="SO0SVue-XmQTItUhd23R-14" value="Item 1" style="text;strokeColor=none;fillColor=none;align=left;verticalAlign=middle;spacingLeft=4;spacingRight=4;overflow=hidden;points=[[0,0.5],[1,0.5]];portConstraint=eastwest;rotatable=0;whiteSpace=wrap;html=1;" vertex="1" parent="SO0SVue-XmQTItUhd23R-13">
          <mxGeometry y="30" width="220" height="30" as="geometry" />
        </mxCell>
        <mxCell id="SO0SVue-XmQTItUhd23R-15" value="Art der Egebnisse" style="text;strokeColor=none;fillColor=none;align=left;verticalAlign=middle;spacingLeft=4;spacingRight=4;overflow=hidden;points=[[0,0.5],[1,0.5]];portConstraint=eastwest;rotatable=0;whiteSpace=wrap;html=1;" vertex="1" parent="SO0SVue-XmQTItUhd23R-13">
          <mxGeometry y="60" width="220" height="30" as="geometry" />
        </mxCell>
        <mxCell id="SO0SVue-XmQTItUhd23R-16" value="Item 3" style="text;strokeColor=none;fillColor=none;align=left;verticalAlign=middle;spacingLeft=4;spacingRight=4;overflow=hidden;points=[[0,0.5],[1,0.5]];portConstraint=eastwest;rotatable=0;whiteSpace=wrap;html=1;" vertex="1" parent="SO0SVue-XmQTItUhd23R-13">
          <mxGeometry y="90" width="220" height="30" as="geometry" />
        </mxCell>
        <mxCell id="SO0SVue-XmQTItUhd23R-17" value="PSet&lt;br&gt;ErgHaltungType" style="swimlane;fontStyle=0;childLayout=stackLayout;horizontal=1;startSize=30;horizontalStack=0;resizeParent=1;resizeParentMax=0;resizeLast=0;collapsible=1;marginBottom=0;whiteSpace=wrap;html=1;" vertex="1" parent="1">
          <mxGeometry x="260" y="1390" width="240" height="120" as="geometry" />
        </mxCell>
        <mxCell id="SO0SVue-XmQTItUhd23R-18" value="Rechenlaufkennung" style="text;strokeColor=none;fillColor=none;align=left;verticalAlign=middle;spacingLeft=4;spacingRight=4;overflow=hidden;points=[[0,0.5],[1,0.5]];portConstraint=eastwest;rotatable=0;whiteSpace=wrap;html=1;" vertex="1" parent="SO0SVue-XmQTItUhd23R-17">
          <mxGeometry y="30" width="240" height="30" as="geometry" />
        </mxCell>
        <mxCell id="SO0SVue-XmQTItUhd23R-19" value="Art der Egebnisse" style="text;strokeColor=none;fillColor=none;align=left;verticalAlign=middle;spacingLeft=4;spacingRight=4;overflow=hidden;points=[[0,0.5],[1,0.5]];portConstraint=eastwest;rotatable=0;whiteSpace=wrap;html=1;" vertex="1" parent="SO0SVue-XmQTItUhd23R-17">
          <mxGeometry y="60" width="240" height="30" as="geometry" />
        </mxCell>
        <mxCell id="SO0SVue-XmQTItUhd23R-20" value="Berechnungsverfahren" style="text;strokeColor=none;fillColor=none;align=left;verticalAlign=middle;spacingLeft=4;spacingRight=4;overflow=hidden;points=[[0,0.5],[1,0.5]];portConstraint=eastwest;rotatable=0;whiteSpace=wrap;html=1;" vertex="1" parent="SO0SVue-XmQTItUhd23R-17">
          <mxGeometry y="90" width="240" height="30" as="geometry" />
        </mxCell>
        <mxCell id="SO0SVue-XmQTItUhd23R-22" style="edgeStyle=orthogonalEdgeStyle;rounded=0;orthogonalLoop=1;jettySize=auto;html=1;entryX=0.687;entryY=-0.005;entryDx=0;entryDy=0;entryPerimeter=0;" edge="1" parent="1" source="SO0SVue-XmQTItUhd23R-6" target="SO0SVue-XmQTItUhd23R-17">
          <mxGeometry relative="1" as="geometry" />
        </mxCell>
        <mxCell id="SO0SVue-XmQTItUhd23R-23" style="edgeStyle=orthogonalEdgeStyle;rounded=0;orthogonalLoop=1;jettySize=auto;html=1;entryX=0.443;entryY=0.017;entryDx=0;entryDy=0;entryPerimeter=0;" edge="1" parent="1" source="SO0SVue-XmQTItUhd23R-6" target="SO0SVue-XmQTItUhd23R-13">
          <mxGeometry relative="1" as="geometry" />
        </mxCell>
        <mxCell id="SO0SVue-XmQTItUhd23R-24" style="edgeStyle=orthogonalEdgeStyle;rounded=0;orthogonalLoop=1;jettySize=auto;html=1;exitX=0;exitY=0.5;exitDx=0;exitDy=0;entryX=0.198;entryY=1.048;entryDx=0;entryDy=0;entryPerimeter=0;" edge="1" parent="1" source="SO0SVue-XmQTItUhd23R-19" target="SO0SVue-XmQTItUhd23R-3">
          <mxGeometry relative="1" as="geometry" />
        </mxCell>
        <mxCell id="SO0SVue-XmQTItUhd23R-25" style="edgeStyle=orthogonalEdgeStyle;rounded=0;orthogonalLoop=1;jettySize=auto;html=1;exitX=0;exitY=0.5;exitDx=0;exitDy=0;entryX=0.36;entryY=1.048;entryDx=0;entryDy=0;entryPerimeter=0;" edge="1" parent="1" source="SO0SVue-XmQTItUhd23R-18" target="SO0SVue-XmQTItUhd23R-3">
          <mxGeometry relative="1" as="geometry" />
        </mxCell>
      </root>
    </mxGraphModel>
  </diagram>
</mxfile>
